# xmcd
#
# Track frame offsets:
#	150
#	13984
#	28130
#	46714
#	62635
#	76535
#	92855
#	106685
#	123420
#	140212
#	154857
#	170997
#	182902
#	201697
#	216360
#
# Disc length: 3046 seconds
#
# Revision: 0
# Processed by: cddbd v1.4PL0 Copyright (c) Steve Scherf et al.
# Submitted via: dBpowerAMP V4.0
#
DISCID=dc0be40f
DTITLE=Trio Calavera - Rancheras en trio
DYEAR=1900
DGENRE=Latin
TTITLE0=Flor Silvestre
TTITLE1=Cielito Lindo
TTITLE2=La Malagüeña
TTITLE3=Un viejo Amor
TTITLE4=Guadalajara
TTITLE5=Te Solte La Rienda
TTITLE6=Bala Perdida
TTITLE7=El Preso Número 9
TTITLE8=La Noche y Tú
TTITLE9=Ya Lo Pagaras Con Dios
TTITLE10=Esta TrstezaMía
TTITLE11=A La Luz De Los Cocuyos
TTITLE12=Cruz De Olvido
TTITLE13=Al Morir La Tarde
TTITLE14=La Enorme Distancia
EXTD=Trio Calavera
EXTT0=
EXTT1=
EXTT2=
EXTT3=
EXTT4=
EXTT5=
EXTT6=
EXTT7=
EXTT8=
EXTT9=
EXTT10=
EXTT11=
EXTT12=
EXTT13=
EXTT14=
PLAYORDER=
